<svg width="151" height="65" viewBox="0 0 151 65" fill="none" xmlns="http://www.w3.org/2000/svg">
<path d="M38.7529 31.4371C38.0582 29.8761 37.1319 28.4712 35.8969 27.2225C34.6619 25.9737 33.041 24.959 31.1885 24.0225C29.5676 23.242 27.7151 22.6176 25.7082 22.0712C25.3995 21.9932 25.0907 21.9151 24.782 21.8371L20.6139 20.9005C19.5332 20.6664 18.5298 20.3542 17.6036 20.042C16.6773 19.7298 15.9826 19.3395 15.2879 18.9493C14.7476 18.559 14.2845 18.1688 13.9758 17.7005C13.8986 17.6224 13.8986 17.5444 13.8214 17.4664C13.5126 16.92 13.3583 16.2176 13.3583 15.5151C13.3583 14.7346 13.5898 14.0322 13.9758 13.4078C14.053 13.3298 14.1301 13.1737 14.2073 13.0956C14.7476 12.3932 15.5195 11.8468 16.5229 11.4566C17.5264 11.0663 18.8386 10.8322 20.3051 10.8322C22.6207 10.8322 24.396 11.3005 25.631 12.3151C26.5573 13.0176 27.0976 13.9542 27.4835 15.0468C27.7151 15.8273 28.4098 16.4517 29.2588 16.4517H37.0547C38.2126 16.4517 39.0616 15.4371 38.9072 14.2663C38.5985 12.081 37.9038 10.0517 36.6688 8.33464C35.1251 5.99317 32.9638 4.19805 30.1851 2.87122C28.7957 2.24683 27.252 1.77854 25.631 1.38829C24.0101 1.15414 22.2348 0.998047 20.3051 0.998047C18.0667 0.998047 15.9054 1.23219 13.9758 1.70049C12.7408 2.01268 11.5058 2.40293 10.4252 2.87122C7.49204 4.19805 5.25361 5.99317 3.63268 8.25659C2.01174 10.5981 1.16268 13.2517 1.16268 16.2956C1.16268 20.042 2.32049 23.0078 4.79048 25.1932C7.02891 27.2225 10.1164 28.7834 13.9758 29.7981C14.2845 29.8761 14.5161 29.9542 14.8248 30.0322L19.9192 31.2029C21.6945 31.5932 23.161 32.0615 24.3189 32.5298C24.8592 32.7639 25.2451 32.9981 25.631 33.2322C26.1713 33.5444 26.5573 33.9347 26.866 34.2469C27.4063 34.9493 27.7151 35.7298 27.7151 36.6664C27.7151 37.681 27.4063 38.5395 26.7888 39.32C26.4801 39.7103 26.0942 40.1005 25.631 40.4127C25.2451 40.7249 24.7048 40.9591 24.1645 41.1932C23.0067 41.6615 21.6945 41.8176 20.0736 41.8176C18.2982 41.8176 16.8317 41.5054 15.5195 41.0371C14.902 40.803 14.3617 40.4908 13.8986 40.1005C13.2811 39.7103 12.818 39.1639 12.432 38.6176C11.8917 37.9151 11.583 37.0566 11.3514 36.12C11.197 35.2615 10.4252 34.6371 9.57609 34.6371H1.85737C0.776748 34.6371 -0.0723116 35.5737 0.00487567 36.6664C0.313625 39.6322 1.0855 42.1298 2.47487 44.2371C4.17299 46.7347 6.56579 48.6859 9.57609 49.8566C10.9655 50.403 12.3548 50.8713 13.9758 51.1835C15.9054 51.5737 17.9895 51.7298 20.3051 51.7298C22.2348 51.7298 24.0101 51.5737 25.7082 51.3396C27.5607 51.0274 29.2588 50.5591 30.8026 49.9347C33.6585 48.7639 35.8969 47.0469 37.4407 44.7834C38.9844 42.52 39.7563 39.8664 39.7563 36.7444C39.7563 34.7932 39.3704 32.9981 38.7529 31.4371Z" fill="white"/>
<path d="M76.8835 35.4176C77.8869 35.4176 78.736 34.559 78.736 33.5444V32.4517C78.736 29.4078 78.2729 26.6761 77.4238 24.3346C76.5747 21.9932 75.3397 19.9639 73.7188 18.4029C72.1751 16.7639 70.2454 15.5932 68.0841 14.7346C65.9229 13.8761 63.5301 13.4858 60.9057 13.4858C57.2007 13.4858 54.0361 14.2663 51.2573 15.9054C48.5558 17.5444 46.3945 19.7297 44.928 22.6176C43.4614 25.5054 42.6895 28.8615 42.6895 32.6859C42.6895 36.6663 43.4614 40.0224 44.928 42.9103C46.3945 45.7981 48.5558 47.9834 51.3345 49.4664C54.1133 51.0273 57.4323 51.8078 61.2917 51.8078C64.4563 51.8078 67.3123 51.3395 69.7823 50.3249C72.2522 49.3103 74.1819 47.9054 75.7257 46.1103C76.7291 44.9395 77.4238 43.6907 77.9641 42.2859C78.4272 41.0371 77.5782 39.7883 76.266 39.7103L69.0876 39.4761C68.3929 39.4761 67.7754 39.8664 67.3895 40.4127C67.1579 40.8029 66.8491 41.1932 66.4632 41.5054C65.8457 42.0517 65.151 42.52 64.302 42.7542C63.4529 43.0664 62.5267 43.2225 61.446 43.2225C59.9795 43.2225 58.6673 42.9103 57.5867 42.2859C56.5061 41.6615 55.657 40.8029 55.1167 39.6322C54.4992 38.4615 54.2676 37.1346 54.2676 35.6517V35.3395H76.8835V35.4176ZM57.6639 23.0078C58.6673 22.3834 59.9023 22.1493 61.1373 22.1493C62.4495 22.1493 63.6073 22.4615 64.5335 23.0078C65.537 23.5541 66.3088 24.3346 66.8491 25.3493C67.0035 25.5834 67.1579 25.8956 67.2351 26.1298C67.7754 27.3785 66.8491 28.7054 65.537 28.7054H56.6604C55.2711 28.7054 54.3448 27.2224 54.9623 25.9737C55.0395 25.8176 55.1167 25.6615 55.2711 25.5054C55.8114 24.3346 56.6604 23.5541 57.6639 23.0078Z" fill="white"/>
<path d="M93.4012 3.57361V49.3102C93.4012 50.3249 92.5522 51.1834 91.5487 51.1834H83.5985C82.595 51.1834 81.746 50.3249 81.746 49.3102V3.57361C81.746 2.55898 82.595 1.70044 83.5985 1.70044H91.5487C92.5522 1.70044 93.4012 2.48093 93.4012 3.57361Z" fill="white"/>
<path d="M111 3.57361V49.3102C111 50.3249 110.151 51.1834 109.148 51.1834H101.12C100.117 51.1834 99.2676 50.3249 99.2676 49.3102V3.57361C99.2676 2.55898 100.117 1.70044 101.12 1.70044H109.07C110.151 1.70044 111 2.48093 111 3.57361Z" fill="white"/>
<path d="M123.273 64.9982C121.884 64.9982 120.571 64.9201 119.336 64.686C118.873 64.608 118.41 64.5299 118.024 64.4519C116.944 64.2177 116.326 63.125 116.635 62.1104L118.179 57.0372C118.487 56.1006 119.414 55.5543 120.34 55.7884C121.343 56.0226 122.269 56.0226 123.041 55.9445C124.199 55.7884 125.125 55.086 125.743 53.7592C125.743 53.6811 125.82 53.6811 125.82 53.6031L125.974 53.2128C126.129 52.8226 126.129 52.3543 126.052 51.886L114.088 16.6079C113.702 15.3591 114.551 14.1104 115.863 14.1104H124.045C124.894 14.1104 125.666 14.6567 125.82 15.5152L132.227 40.5689H132.613L139.096 15.5152C139.328 14.6567 140.023 14.1104 140.872 14.1104H149.131C150.443 14.1104 151.292 15.3591 150.906 16.6079L137.939 54.7738C137.244 56.8031 136.318 58.5201 135.083 60.0811C133.848 61.6421 132.304 62.8909 130.374 63.7494C128.444 64.608 126.052 64.9982 123.273 64.9982Z" fill="white"/>
</svg>
